<?xml version="1.0" standalone="no"?>
<!DOCTYPE svg PUBLIC "-//W3C//DTD SVG 20010904//EN"
 "http://www.w3.org/TR/2001/REC-SVG-20010904/DTD/svg10.dtd">
<svg version="1.0" xmlns="http://www.w3.org/2000/svg"
 width="600.000000pt" height="600.000000pt" viewBox="0 0 600.000000 600.000000"
 preserveAspectRatio="xMidYMid meet">
<g transform="translate(0.000000,600.000000) scale(0.100000,-0.100000)"
fill="#000000" stroke="none">
<path d="M0 3000 l0 -3000 3000 0 3000 0 0 3000 0 3000 -3000 0 -3000 0 0
-3000z m4690 -5 l0 -1685 -1685 0 -1685 0 -2 1686 c-2 927 -2 1686 -1 1687 1
1 760 1 1687 -1 l1686 -2 0 -1685z"/>
<path d="M1351 4647 c-5 -5 -6 -889 -1 -1337 1 -19 1 -134 0 -255 0 -121 3
-240 6 -265 3 -25 2 -40 -3 -33 -4 6 -8 -227 -8 -518 0 -291 2 -529 5 -529 4
0 3 -30 -1 -68 -11 -98 -11 -202 1 -202 6 0 10 -12 10 -27 0 -22 -2 -25 -10
-13 -7 11 -9 4 -8 -27 2 -23 7 -39 13 -35 5 3 750 6 1655 7 l1645 0 3 1653 c1
908 -1 1652 -5 1653 -54 5 -3296 2 -3302 -4z m1812 -731 c15 -1 27 -5 27 -9 0
-5 8 -6 19 -2 22 7 53 -4 45 -16 -3 -5 2 -6 11 -3 8 4 22 1 30 -6 8 -6 19 -9
25 -5 5 3 10 1 10 -5 0 -7 7 -9 17 -6 10 4 14 4 10 0 -9 -9 50 -38 75 -37 9 0
16 -5 15 -11 -1 -6 6 -10 15 -10 10 1 16 -3 15 -8 -1 -6 4 -13 12 -16 8 -3 11
0 7 7 -5 7 -1 9 9 4 12 -4 13 -8 5 -13 -8 -5 -1 -10 19 -15 17 -4 29 -10 26
-15 -3 -4 15 -24 40 -45 25 -20 45 -33 45 -29 0 4 9 -1 20 -11 11 -10 17 -22
14 -26 -3 -5 -1 -9 5 -9 5 0 13 -9 16 -20 4 -11 11 -18 16 -15 5 4 9 2 9 -2 0
-5 7 -18 16 -29 15 -18 15 -18 5 3 -13 26 -14 33 -3 33 5 0 9 -6 10 -12 2 -31
9 -48 25 -66 9 -10 17 -25 17 -33 0 -8 9 -21 19 -28 11 -8 17 -20 14 -28 -3
-7 0 -13 5 -13 6 0 14 -16 18 -35 4 -21 10 -32 17 -28 6 4 8 0 4 -10 -3 -9 4
-40 17 -68 13 -27 25 -46 27 -40 6 17 10 -79 10 -239 0 -191 -3 -232 -19 -249
-7 -7 -11 -20 -8 -28 4 -9 2 -11 -6 -7 -7 5 -9 -1 -6 -19 3 -15 1 -24 -3 -21
-5 3 -9 -4 -9 -16 0 -12 -4 -18 -10 -15 -5 3 -10 -3 -10 -14 0 -12 -5 -21 -11
-21 -5 0 -7 -4 -4 -10 5 -9 -29 -67 -48 -81 -4 -3 -7 -12 -5 -20 2 -8 -3 -13
-9 -12 -7 2 -14 -5 -15 -15 0 -9 -2 -24 -2 -32 -1 -8 -9 -14 -19 -12 -9 2 -17
-2 -17 -9 0 -6 -12 -20 -26 -31 -14 -11 -23 -26 -21 -33 3 -6 -1 -12 -8 -12
-15 0 -83 -53 -84 -66 -1 -5 4 -5 11 -1 7 4 8 3 4 -4 -4 -6 -13 -9 -20 -6 -8
3 -17 0 -22 -7 -5 -8 -3 -10 7 -4 8 5 11 4 6 -1 -9 -9 -13 -10 -42 -13 -8 0
-14 -7 -13 -14 2 -6 -4 -11 -12 -10 -8 1 -26 -7 -40 -18 -24 -20 -24 -20 -2
-9 13 6 26 9 29 7 7 -8 -40 -21 -64 -18 -13 1 -23 -2 -23 -7 0 -12 -120 -58
-139 -54 -7 2 -10 -1 -6 -7 4 -7 -5 -11 -23 -11 -16 0 -31 -3 -35 -6 -23 -23
-337 -23 -374 -1 -7 4 -24 5 -39 1 -19 -5 -25 -4 -20 5 5 7 -3 11 -23 11 -16
0 -32 4 -35 9 -3 5 -26 14 -51 20 -25 6 -45 16 -45 22 0 5 -5 7 -11 4 -5 -4
-19 1 -29 10 -12 11 -27 15 -42 10 -16 -4 -19 -3 -9 3 18 13 5 33 -17 25 -9
-3 -14 -2 -9 2 4 5 -11 17 -33 27 -22 11 -38 23 -35 28 4 6 -1 7 -11 3 -11 -4
-15 -2 -11 4 3 5 -10 24 -29 41 -36 32 -50 40 -39 23 3 -5 1 -12 -4 -15 -5 -4
-8 2 -7 11 3 17 -29 67 -66 105 -10 10 -18 24 -18 32 0 8 -5 18 -12 22 -7 5
-8 3 -3 -6 5 -9 4 -11 -4 -6 -6 4 -10 15 -9 24 2 10 -3 16 -11 14 -8 -2 -11 3
-8 13 4 8 2 15 -2 15 -5 0 -11 -6 -14 -12 -3 -7 -5 -4 -5 7 1 22 -50 175 -63
189 -4 5 -5 15 -2 22 3 8 1 14 -5 14 -22 0 -31 208 -18 367 7 73 31 172 45
183 4 3 13 24 21 48 7 23 18 42 24 42 7 0 8 3 1 8 -6 4 -10 12 -10 17 1 14 24
52 25 40 0 -6 -5 -16 -11 -22 -7 -7 -7 -13 -1 -17 5 -3 13 6 17 22 3 15 16 35
28 45 12 10 15 15 7 11 -10 -5 -9 -1 3 14 11 12 16 26 11 33 -4 7 -3 10 4 5 6
-3 18 4 26 16 9 12 16 19 16 14 0 -5 11 6 23 25 18 26 21 38 13 49 -8 12 -8
13 4 3 14 -13 39 -19 27 -6 -4 3 7 15 23 25 24 14 29 23 26 43 -3 15 -1 23 5
20 5 -4 7 -10 4 -15 -3 -5 -1 -11 5 -15 9 -5 14 7 11 27 0 4 5 5 13 2 7 -3 21
2 29 11 9 9 18 14 20 13 2 -2 11 5 20 14 13 12 14 18 4 22 -6 3 1 2 17 -1 23
-5 27 -3 21 8 -5 8 -5 11 0 7 4 -4 24 0 44 8 20 9 51 21 70 26 26 8 31 12 20
20 -10 7 -7 7 9 3 17 -5 28 -1 37 12 8 10 15 13 15 6 0 -14 56 -7 78 10 7 5
15 7 18 4 3 -3 17 -1 32 4 15 5 79 6 142 2 63 -3 127 -6 143 -7z m352 -106 c3
-6 -1 -7 -9 -4 -18 7 -21 14 -7 14 6 0 13 -4 16 -10z m85 -74 c0 -3 -4 -8 -10
-11 -5 -3 -10 -1 -10 4 0 6 5 11 10 11 6 0 10 -2 10 -4z m-2243 -358 c-2 -13
-4 -3 -4 22 0 25 2 35 4 23 2 -13 2 -33 0 -45z m2560 -60 c-3 -8 -6 -5 -6 6
-1 11 2 17 5 13 3 -3 4 -12 1 -19z"/>
<path d="M2772 3875 c-306 -79 -546 -311 -643 -625 -21 -66 -24 -95 -24 -240
0 -188 12 -250 75 -387 120 -259 343 -441 625 -508 113 -27 297 -23 419 9 335
87 587 350 662 688 22 98 22 291 1 380 -69 283 -256 516 -507 631 -176 80
-418 101 -608 52z m358 -445 l0 -430 -130 0 -130 0 0 50 0 50 -52 0 -53 0 3
-336 3 -336 -23 7 c-13 4 -50 27 -84 50 -268 190 -347 555 -183 842 42 74 135
171 200 210 98 59 90 73 87 -156 l-3 -201 53 0 52 0 0 340 0 340 130 0 130 0
0 -430z m263 344 c18 -10 59 -35 92 -57 324 -219 459 -619 334 -991 -82 -245
-272 -442 -516 -536 l-73 -28 1 71 0 72 92 44 c75 36 107 59 173 125 100 101
174 228 199 344 l7 32 -166 0 c-91 0 -166 -2 -166 -4 0 -2 12 -25 26 -51 l27
-47 63 4 c35 2 64 2 64 1 0 -13 -52 -104 -57 -99 -3 3 -14 1 -24 -4 -12 -7
-20 -6 -25 2 -4 7 -4 10 1 6 10 -10 37 11 29 23 -10 17 7 31 22 18 12 -10 13
-9 8 6 -5 11 -4 16 3 12 5 -3 10 0 10 8 0 18 -72 21 -82 4 -4 -6 -16 3 -30 21
-21 29 -24 30 -34 13 -6 -10 -11 -13 -11 -6 0 6 5 15 10 18 12 7 3 46 -12 56
-14 9 1 36 23 42 13 3 17 1 12 -6 -4 -7 1 -6 10 2 12 9 17 10 17 2 0 -7 5 -9
12 -5 18 11 262 10 274 -1 6 -5 12 -14 13 -20 2 -5 7 -16 13 -23 8 -9 7 -11
-5 -6 -12 4 -14 1 -10 -15 3 -12 1 -21 -5 -21 -6 0 -13 -14 -17 -30 -4 -17
-13 -44 -21 -60 -9 -16 -12 -35 -8 -42 4 -7 4 -10 -1 -6 -16 15 -71 -78 -66
-112 1 -12 0 -12 -7 -1 -8 11 -11 11 -18 0 -4 -7 -3 -14 4 -17 7 -2 12 -8 12
-14 0 -7 -5 -7 -14 1 -10 8 -19 5 -39 -13 -14 -13 -23 -27 -19 -32 4 -4 2 -4
-4 -1 -15 9 -27 -20 -12 -29 7 -5 8 -2 3 7 -5 8 -6 12 -2 9 11 -10 7 -24 -8
-26 -8 -1 -15 2 -15 7 0 6 -5 7 -10 4 -6 -4 -8 -11 -4 -16 3 -5 2 -9 -3 -8
-20 3 -32 -2 -29 -13 1 -7 1 -10 -1 -6 -3 4 -15 0 -29 -8 -13 -9 -21 -20 -18
-25 3 -5 -3 -6 -12 -2 -12 4 -15 3 -10 -6 4 -6 4 -11 -1 -10 -4 1 -11 0 -15
-1 -5 -1 -11 -3 -15 -4 -63 -15 -79 -31 -78 -81 1 -32 5 -40 21 -42 26 -3 170
72 166 87 -1 6 2 9 7 6 5 -4 12 -2 16 4 4 6 11 8 16 5 5 -4 9 -2 9 4 0 5 9 13
20 16 11 4 19 14 18 22 -2 9 5 17 17 19 11 1 25 10 31 18 6 9 14 13 17 9 7 -7
11 11 8 37 -2 12 0 13 7 1 8 -11 14 -9 32 9 19 19 53 82 54 102 1 3 5 10 10
15 5 5 6 2 2 -7 -4 -8 2 -4 13 10 11 14 18 34 16 45 -3 11 -2 14 1 7 4 -9 11
-5 20 13 8 15 11 32 7 38 -4 6 -1 7 7 2 10 -6 11 -1 6 21 -4 19 -3 24 2 15 14
-20 25 4 18 37 -4 16 -3 22 2 14 14 -21 34 83 39 214 6 124 -15 281 -39 295
-6 4 -8 11 -4 17 3 6 0 16 -7 24 -8 7 -12 19 -9 26 2 6 0 12 -5 12 -5 0 -9 10
-10 21 -2 22 -48 99 -59 99 -4 0 -1 -7 6 -15 20 -24 5 -18 -16 7 -10 12 -13
18 -6 14 17 -10 15 5 -6 31 -9 12 -28 25 -42 27 -14 2 -26 5 -28 5 -2 1 0 6 4
12 4 8 9 8 17 0 23 -23 29 -10 7 14 -12 13 -28 22 -34 18 -6 -3 -8 -2 -3 2 10
11 -23 46 -36 38 -5 -3 -7 -1 -4 5 4 5 -8 22 -25 36 -18 14 -40 33 -49 41 -12
12 -18 12 -28 2 -10 -9 -12 -9 -9 3 2 8 -3 14 -10 12 -8 -1 -11 2 -8 7 4 5 -3
12 -14 16 -11 3 -20 11 -20 16 0 5 -5 9 -11 9 -5 0 -7 -5 -3 -12 4 -7 3 -8 -5
-4 -6 4 -9 12 -6 17 4 5 -2 10 -12 10 -10 1 -25 3 -33 4 -8 1 -24 3 -35 4 -17
1 -18 3 -5 12 12 8 10 9 -9 7 -20 -3 -24 -9 -27 -48 -3 -32 -1 -41 6 -30 9 13
10 13 10 0 0 -16 54 -44 78 -41 6 1 12 -4 12 -10 0 -7 3 -10 6 -6 3 3 19 -8
35 -26 25 -28 28 -29 24 -9 -2 13 0 20 6 17 5 -4 7 -10 4 -15 -8 -13 42 -43
56 -34 7 4 9 3 6 -3 -7 -11 44 -82 69 -96 8 -5 12 -12 9 -18 -3 -5 1 -6 10 -3
11 5 14 2 9 -10 -3 -9 -2 -16 4 -16 5 0 12 -10 16 -22 4 -17 8 -20 15 -10 7
11 9 10 14 -3 4 -9 3 -13 -3 -10 -14 9 -12 -7 4 -28 8 -10 16 -14 18 -10 3 4
3 2 1 -6 -2 -7 2 -20 8 -27 6 -8 8 -14 4 -14 -4 0 -2 -7 5 -15 7 -8 16 -30 20
-48 4 -17 11 -31 16 -30 5 1 9 -10 9 -23 0 -13 -4 -24 -8 -24 -5 0 -6 -4 -3
-9 10 -16 -64 -22 -211 -19 -117 2 -138 4 -127 16 10 10 50 12 169 10 l156 -3
-7 30 c-41 190 -196 372 -400 467 l-64 30 0 68 0 68 66 -24 c36 -13 80 -31 97
-40z m-623 -8 l0 -64 -75 -36 c-272 -128 -430 -397 -412 -701 16 -282 183
-528 430 -635 l57 -25 0 -72 0 -71 -73 28 c-120 46 -214 108 -307 201 -92 93
-133 154 -185 276 -84 196 -88 442 -10 649 79 210 282 413 488 490 88 33 87
33 87 -40z m769 -130 c9 -11 9 -16 -1 -22 -7 -4 -10 -4 -6 1 4 4 3 14 -3 22
-6 7 -9 13 -6 13 2 0 10 -6 16 -14z m-839 -10 c0 -2 -8 -10 -17 -17 -16 -13
-17 -12 -4 4 13 16 21 21 21 13z m626 -59 c6 -8 3 -8 -9 1 -9 8 -20 11 -25 8
-5 -3 -9 1 -9 9 0 16 31 4 43 -18z m-27 -19 c70 -39 187 -157 224 -226 l28
-52 -68 0 -69 0 -25 -49 c-13 -27 -28 -47 -32 -44 -4 3 -3 11 4 19 6 8 8 14 5
14 -4 0 0 10 8 22 19 27 21 42 4 32 -8 -4 -10 -3 -5 2 5 5 12 9 15 10 21 2 61
25 64 36 4 10 10 9 26 -5 13 -13 22 -15 27 -7 7 12 -23 65 -32 56 -3 -3 0 -14
8 -23 12 -17 12 -17 -5 -1 -10 9 -18 28 -18 43 0 18 -8 29 -22 35 -11 5 -17 9
-13 9 4 1 2 7 -5 15 -7 7 -20 11 -28 9 -12 -4 -13 -3 -1 5 11 8 4 16 -30 37
-24 16 -47 33 -51 39 -6 8 -11 6 -19 -4 -9 -13 -10 -12 -5 2 3 10 1 20 -4 23
-6 4 -10 1 -10 -5 0 -6 -3 -9 -7 -7 -5 3 -7 -237 -5 -534 l2 -539 49 30 c63
39 71 48 71 83 0 8 4 7 10 -3 8 -13 12 -11 27 10 10 14 18 28 18 33 0 4 3 6 6
5 3 -2 14 5 23 15 10 10 21 16 24 13 2 -3 -16 -30 -42 -61 -49 -56 -153 -137
-193 -149 l-23 -7 0 575 c0 317 3 576 6 576 4 0 32 -14 63 -32z m318 -310 c-3
-8 -6 -5 -6 6 -1 11 2 17 5 13 3 -3 4 -12 1 -19z m160 -10 c-3 -8 -6 -5 -6 6
-1 11 2 17 5 13 3 -3 4 -12 1 -19z m-950 -234 c-3 -3 -12 -4 -19 -1 -8 3 -5 6
6 6 11 1 17 -2 13 -5z m303 -448 l0 -404 -71 -4 c-39 -2 -98 -1 -130 0 l-59 4
0 404 0 404 130 0 130 0 0 -404z m624 298 c3 -8 2 -12 -4 -9 -6 3 -10 10 -10
16 0 14 7 11 14 -7z m-176 -69 c-3 -3 -9 2 -12 12 -6 14 -5 15 5 6 7 -7 10
-15 7 -18z m-1135 -152 c-3 -7 -7 -13 -10 -13 -3 0 -3 7 0 15 4 8 2 17 -3 20
-6 4 -10 11 -10 18 0 6 6 2 14 -8 8 -11 12 -25 9 -32z m1138 14 c-10 -9 -11
-8 -5 6 3 10 9 15 12 12 3 -3 0 -11 -7 -18z m-171 -37 c0 -5 -5 -10 -11 -10
-5 0 -7 5 -4 10 3 6 8 10 11 10 2 0 4 -4 4 -10z m-906 -42 c-9 -14 -23 2 -17
18 4 12 8 13 14 3 4 -7 5 -17 3 -21z m1003 17 c0 -8 -4 -12 -9 -9 -5 3 -6 10
-3 15 9 13 12 11 12 -6z m-202 -43 c-3 -3 -11 0 -18 7 -9 10 -8 11 6 5 10 -3
15 -9 12 -12z m135 -17 c0 -2 -6 -8 -13 -14 -10 -8 -14 -7 -14 2 0 8 6 14 14
14 7 0 13 -1 13 -2z m197 -62 c0 -9 -4 -10 -14 -2 -7 6 -13 12 -13 14 0 1 6 2
13 2 8 0 14 -6 14 -14z m-1036 -26 c-10 -9 -11 -8 -5 6 3 10 9 15 12 12 3 -3
0 -11 -7 -18z m30 0 c-10 -9 -11 -8 -5 6 3 10 9 15 12 12 3 -3 0 -11 -7 -18z
m724 13 c-3 -5 -12 -10 -18 -10 -7 0 -6 4 3 10 19 12 23 12 15 0z m19 -26 c3
-8 2 -12 -4 -9 -6 3 -10 10 -10 16 0 14 7 11 14 -7z"/>
<path d="M2927 3840 l-27 -5 -5 -324 c-3 -185 -10 -330 -15 -336 -5 -7 -7 -15
-4 -18 4 -3 -21 -6 -54 -5 -41 1 -63 6 -66 15 -3 7 -13 13 -23 13 -12 0 -14 3
-6 8 14 9 20 347 6 347 -14 0 -91 -44 -99 -56 -4 -7 -3 -9 3 -6 5 3 10 0 10
-8 0 -11 -5 -12 -21 -3 -19 10 -20 10 -7 -6 12 -14 12 -16 -2 -10 -10 3 -20
-2 -27 -15 -6 -12 -18 -21 -26 -21 -10 0 -14 -6 -11 -14 3 -8 -1 -17 -9 -20
-8 -3 -13 -11 -12 -18 2 -7 -2 -12 -9 -11 -7 2 -10 -4 -7 -12 5 -11 2 -13 -12
-8 -11 4 -15 3 -11 -4 7 -11 -13 -63 -25 -63 -3 0 -4 -10 0 -22 4 -16 2 -19
-8 -13 -10 6 -12 2 -8 -18 3 -15 1 -24 -4 -21 -6 4 -7 -13 -4 -42 3 -31 2 -43
-4 -34 -13 21 -19 0 -22 -87 -2 -51 1 -74 9 -78 8 -3 12 -23 11 -57 -1 -29 4
-63 11 -76 6 -12 9 -28 5 -34 -4 -7 -3 -8 4 -4 8 4 12 0 12 -12 0 -11 9 -31
21 -46 11 -14 17 -31 13 -37 -4 -8 -3 -9 4 -5 7 4 12 1 12 -9 0 -9 7 -15 16
-13 10 2 18 -5 20 -15 4 -27 34 -68 44 -62 6 3 7 -1 4 -9 -4 -11 0 -16 11 -16
10 0 13 5 9 12 -4 7 -3 8 5 4 6 -4 9 -12 5 -17 -7 -12 14 -39 29 -39 6 0 3 6
-8 13 -14 11 -15 16 -5 22 8 5 11 4 7 -2 -4 -6 0 -14 9 -17 9 -3 14 -13 11
-21 -4 -9 -1 -12 9 -8 7 3 14 10 14 17 0 6 4 5 9 -3 5 -8 7 -20 4 -28 -3 -7 1
-13 8 -13 11 0 15 54 17 287 2 159 6 291 9 295 2 5 -2 8 -9 8 -9 0 -9 3 -2 8
6 4 10 17 9 30 -1 13 3 26 8 29 6 3 7 1 3 -5 -11 -17 9 -15 24 3 7 8 18 15 24
15 6 0 4 -5 -4 -11 -12 -9 -10 -10 8 -6 13 3 37 1 53 -5 25 -9 29 -15 29 -49
0 -21 3 -39 8 -40 4 -1 53 -2 110 -4 l102 -2 0 403 c0 272 -3 405 -11 409 -13
8 -136 12 -172 5z m-392 -549 c-9 -8 -36 -10 -30 -2 2 4 11 8 20 8 8 0 13 -3
10 -6z m60 -669 c-3 -3 -11 0 -18 7 -9 10 -8 11 6 5 10 -3 15 -9 12 -12z"/>
<path d="M2421 2914 c0 -11 3 -14 6 -6 3 7 2 16 -1 19 -3 4 -6 -2 -5 -13z"/>
<path d="M3467 3579 c7 -7 15 -10 18 -7 3 3 -2 9 -12 12 -14 6 -15 5 -6 -5z"/>
<path d="M3538 2863 c12 -2 32 -2 45 0 12 2 2 4 -23 4 -25 0 -35 -2 -22 -4z"/>
<path d="M3480 2691 c0 -6 4 -13 10 -16 6 -3 7 1 4 9 -7 18 -14 21 -14 7z"/>
<path d="M2704 3785 c-10 -8 -26 -15 -35 -15 -21 0 -99 -39 -99 -49 0 -5 -9
-11 -21 -14 -14 -4 -18 -10 -14 -19 6 -10 5 -10 -5 -1 -10 9 -20 4 -45 -21
-18 -18 -41 -36 -51 -40 -16 -6 -16 -9 -4 -17 12 -8 10 -10 -8 -6 -12 3 -20 1
-17 -3 3 -5 1 -11 -5 -15 -6 -4 -8 -11 -4 -16 3 -5 1 -8 -4 -7 -5 2 -26 -14
-46 -34 -31 -32 -36 -42 -31 -70 4 -23 2 -29 -4 -18 -5 8 -8 19 -5 25 3 5 -1
2 -8 -8 -7 -10 -21 -28 -30 -39 -19 -23 -24 -43 -8 -33 6 3 7 -1 3 -10 -4 -13
-8 -14 -14 -4 -6 11 -9 10 -15 -4 -3 -9 -4 -23 -1 -30 3 -8 1 -20 -5 -28 -8
-11 -9 -10 -4 4 4 11 2 16 -5 12 -5 -4 -9 -14 -7 -23 1 -10 -6 -31 -15 -49
-10 -18 -16 -36 -15 -40 1 -4 -4 -32 -10 -61 -23 -100 -8 -323 27 -413 5 -15
7 -30 4 -33 -4 -3 -1 -6 4 -6 6 0 14 6 16 13 3 6 6 2 6 -11 1 -15 -3 -21 -10
-16 -14 9 28 -73 53 -101 9 -11 18 -24 20 -30 2 -5 7 -9 13 -7 5 2 7 0 3 -3
-10 -11 8 -42 61 -103 25 -29 51 -50 58 -48 6 3 10 0 8 -7 -3 -7 17 -28 44
-47 27 -19 46 -39 43 -44 -3 -5 0 -6 6 -2 6 3 13 2 17 -3 9 -15 66 -41 76 -35
5 3 9 0 9 -5 0 -6 7 -11 15 -11 8 0 15 -4 15 -10 0 -5 7 -6 17 -3 11 4 14 3 9
-5 -5 -8 -2 -10 8 -6 9 3 16 1 16 -5 0 -6 6 -11 14 -11 9 0 16 12 18 33 2 25
-4 38 -30 64 -21 20 -39 30 -49 26 -11 -4 -14 -2 -9 5 5 8 -3 14 -23 18 -18 4
-28 11 -24 17 4 6 0 8 -11 4 -9 -4 -15 -3 -12 2 3 5 -1 14 -9 21 -13 11 -15
10 -10 -6 4 -10 -1 -6 -10 9 -10 18 -22 26 -31 23 -10 -4 -12 -2 -8 6 5 7 2 9
-9 5 -11 -4 -14 -2 -11 7 3 7 -16 32 -42 55 -26 23 -44 44 -41 47 8 8 -16 33
-25 27 -4 -2 -6 2 -3 9 3 7 -6 25 -20 41 -15 15 -23 32 -19 39 5 7 3 8 -6 3
-10 -6 -12 -4 -7 8 3 10 3 17 -2 17 -5 0 -14 20 -21 45 -7 25 -17 45 -22 45
-6 0 -8 7 -4 15 3 8 0 15 -5 15 -7 0 -9 9 -6 22 3 12 1 30 -5 41 -5 11 -12 53
-14 95 -2 41 -7 79 -11 85 -3 6 -1 7 6 3 8 -5 11 4 11 31 -2 53 17 145 31 154
6 4 9 11 5 17 -3 6 3 27 15 46 12 20 18 43 15 52 -3 8 -2 13 3 10 8 -5 63 67
67 87 1 4 3 10 4 15 1 4 1 12 0 17 -1 6 2 7 6 3 4 -4 13 -3 21 3 16 14 18 33
1 23 -7 -4 -8 -3 -4 5 4 6 11 9 16 6 4 -3 24 13 44 35 20 22 36 38 36 36 0 -3
15 9 33 25 17 17 62 44 100 61 61 28 72 37 68 60 0 4 5 5 12 2 18 -6 15 35 -2
46 -11 6 -11 9 0 13 8 3 9 6 3 6 -5 1 -19 -6 -30 -14z m-77 -51 c-3 -3 -12 -4
-19 -1 -8 3 -5 6 6 6 11 1 17 -2 13 -5z m-52 -53 c3 -5 2 -12 -3 -15 -5 -3 -9
1 -9 9 0 17 3 19 12 6z m-185 -244 c0 -2 -14 -16 -32 -33 -28 -25 -26 -17 7
23 9 11 25 17 25 10z m55 -947 c3 -5 1 -10 -4 -10 -6 0 -11 5 -11 10 0 6 2 10
4 10 3 0 8 -4 11 -10z"/>
<path d="M3455 3300 c-3 -5 -1 -10 4 -10 6 0 11 5 11 10 0 6 -2 10 -4 10 -3 0
-8 -4 -11 -10z"/>
<path d="M2933 2923 l-42 -4 5 -377 c3 -207 9 -379 14 -382 4 -3 50 -3 101 0
l94 5 0 379 0 378 -65 3 c-36 1 -84 0 -107 -2z"/>
<path d="M3640 3666 c0 -2 8 -10 18 -17 15 -13 16 -12 3 4 -13 16 -21 21 -21
13z"/>
</g>
</svg>
